<svg width="693" height="495" viewBox="0 0 693 495" fill="none" xmlns="http://www.w3.org/2000/svg">
<g id="Group 41">
<g id="Group 10">
<g id="Rectangle 3" filter="url(#filter0_d_0_328)">
<rect x="7" y="7" width="642.52" height="401.667" rx="13.3858" fill="white"/>
</g>
<g id="Rectangle 3_2" filter="url(#filter1_d_0_328)">
<path d="M7 20.3858C7 12.993 12.993 7 20.3858 7H636.134C643.527 7 649.52 12.993 649.52 20.3858V49.8444H7V20.3858Z" fill="#00252E"/>
</g>
<rect id="Rectangle 5" x="55.189" y="20.3889" width="133.858" height="16.0667" rx="3.34646" fill="#E1E8EE"/>
<g id="Group 5">
<rect id="Rectangle 6" x="585.268" y="21.7278" width="21.4173" height="2.67778" rx="1.33858" fill="#D8D8D8"/>
<rect id="Rectangle 6 Copy" x="585.268" y="27.0833" width="21.4173" height="2.67778" rx="1.33858" fill="#D8D8D8"/>
<rect id="Rectangle 6 Copy 2" x="585.268" y="32.4389" width="21.4173" height="2.67778" rx="1.33858" fill="#D8D8D8"/>
</g>
<g id="Group 9">
<ellipse id="Oval Copy" cx="87.3149" cy="131.517" rx="32.126" ry="32.1333" fill="url(#paint0_linear_0_328)"/>
<g id="Group 4">
<rect id="Rectangle 4" x="156.921" y="107.417" width="76.9685" height="10.7111" rx="2.00787" fill="#E1E8EE"/>
<rect id="Rectangle 4 Copy" x="156.921" y="128.839" width="267.717" height="5.35556" rx="2.00787" fill="#E1E8EE"/>
<rect id="Rectangle 4 Copy 2" x="156.921" y="139.55" width="245.407" height="5.35556" rx="2.00787" fill="#E1E8EE"/>
<rect id="Rectangle 4 Copy 3" x="156.921" y="150.261" width="223.097" height="5.35556" rx="2.00787" fill="#E1E8EE"/>
</g>
<g id="Group 6">
<ellipse id="Oval" cx="464.795" cy="131.517" rx="8.0315" ry="8.03333" fill="#A7B9C8"/>
<ellipse id="Oval Copy 5" cx="507.63" cy="131.517" rx="8.0315" ry="8.03333" fill="#A7B9C8"/>
<ellipse id="Oval Copy 3" cx="486.212" cy="131.517" rx="8.0315" ry="8.03333" fill="#A7B9C8"/>
<ellipse id="Oval Copy 6" cx="529.047" cy="131.517" rx="8.0315" ry="8.03333" fill="#A7B9C8"/>
<ellipse id="Oval Copy 8" cx="550.464" cy="131.517" rx="8.0315" ry="8.03333" fill="#A7B9C8"/>
</g>
</g>
<g id="Group 8">
<ellipse id="Oval Copy 4" cx="85.3071" cy="220.553" rx="30.1181" ry="30.125" fill="url(#paint1_linear_0_328)"/>
<g id="Group 4 Copy">
<rect id="Rectangle 4_2" x="154.913" y="196.453" width="76.9685" height="10.7111" rx="2.00787" fill="#E1E8EE"/>
<rect id="Rectangle 4 Copy_2" x="154.913" y="217.875" width="267.717" height="5.35556" rx="2.00787" fill="#E1E8EE"/>
<rect id="Rectangle 4 Copy 2_2" x="154.913" y="228.586" width="245.407" height="5.35556" rx="2.00787" fill="#E1E8EE"/>
<rect id="Rectangle 4 Copy 3_2" x="154.913" y="239.297" width="223.097" height="5.35556" rx="2.00787" fill="#E1E8EE"/>
</g>
<g id="Group 6 Copy">
<ellipse id="Oval_2" cx="462.787" cy="220.553" rx="8.0315" ry="8.03333" fill="#A7B9C8"/>
<ellipse id="Oval Copy 5_2" cx="505.622" cy="220.553" rx="8.0315" ry="8.03333" fill="#A7B9C8"/>
<ellipse id="Oval Copy 3_2" cx="484.205" cy="220.553" rx="8.0315" ry="8.03333" fill="#A7B9C8"/>
</g>
</g>
<g id="Group 7">
<ellipse id="Oval Copy 2" cx="85.3071" cy="316.283" rx="30.1181" ry="30.125" fill="url(#paint2_linear_0_328)"/>
<g id="Group 4 Copy 2">
<rect id="Rectangle 4_3" x="154.913" y="292.183" width="76.9685" height="10.7111" rx="2.00787" fill="#E1E8EE"/>
<rect id="Rectangle 4 Copy_3" x="154.913" y="313.606" width="267.717" height="5.35556" rx="2.00787" fill="#E1E8EE"/>
<rect id="Rectangle 4 Copy 2_3" x="154.913" y="324.317" width="245.407" height="5.35556" rx="2.00787" fill="#E1E8EE"/>
<rect id="Rectangle 4 Copy 3_3" x="154.913" y="335.028" width="223.097" height="5.35556" rx="2.00787" fill="#E1E8EE"/>
</g>
<g id="Group 6 Copy 2">
<ellipse id="Oval_3" cx="462.787" cy="316.283" rx="8.0315" ry="8.03333" fill="#A7B9C8"/>
<ellipse id="Oval Copy 5_3" cx="505.622" cy="316.283" rx="8.0315" ry="8.03333" fill="#A7B9C8"/>
<ellipse id="Oval Copy 3_3" cx="484.205" cy="316.283" rx="8.0315" ry="8.03333" fill="#A7B9C8"/>
<ellipse id="Oval Copy 6_2" cx="527.039" cy="316.283" rx="8.0315" ry="8.03333" fill="#A7B9C8"/>
</g>
</g>
</g>
<g id="Group 40">
<g id="Group 3">
<g id="Rectangle 3_3" filter="url(#filter2_d_0_328)">
<path fill-rule="evenodd" clip-rule="evenodd" d="M472.827 157.667C472.827 151.358 477.941 146.244 484.249 146.244H675.577C681.886 146.244 687 151.359 687 157.667V477.577C687 483.886 681.886 489 675.577 489H484.249C477.941 489 472.827 483.886 472.827 477.577V157.667Z" fill="white"/>
</g>
<g id="Rectangle 3_4" filter="url(#filter3_d_0_328)">
<path fill-rule="evenodd" clip-rule="evenodd" d="M472.827 157.667C472.827 151.359 477.941 146.244 484.249 146.244H675.577C681.886 146.244 687 151.359 687 157.667V182.805H472.827V157.667Z" fill="#00252E"/>
</g>
</g>
<g id="Group 12">
<rect id="Rectangle 5_2" x="494.333" y="158.812" width="69.6063" height="13.7102" rx="2.85564" fill="#E1E8EE"/>
<g id="Group 5_2">
<rect id="Rectangle 6_2" x="645.879" y="159.955" width="18.2761" height="2.28504" rx="1.14226" fill="#D8D8D8"/>
<rect id="Rectangle 6 Copy_2" x="645.879" y="164.525" width="18.2761" height="2.28504" rx="1.14226" fill="#D8D8D8"/>
<rect id="Rectangle 6 Copy 2_2" x="645.879" y="169.095" width="18.2761" height="2.28504" rx="1.14226" fill="#D8D8D8"/>
</g>
</g>
<g id="Group 11">
<ellipse id="Oval Copy_2" cx="504.283" cy="228.586" rx="10.0394" ry="10.0417" fill="url(#paint3_linear_0_328)"/>
<g id="Group 4_2">
<rect id="Rectangle 4_4" x="525.031" y="220.553" width="38.4843" height="3.57037" rx="0.615488" fill="#E1E8EE"/>
<rect id="Rectangle 4 Copy_4" x="525.031" y="227.694" width="133.858" height="1.78519" rx="0.615488" fill="#E1E8EE"/>
<rect id="Rectangle 4 Copy 2_4" x="525.031" y="231.264" width="122.703" height="1.78519" rx="0.615488" fill="#E1E8EE"/>
<rect id="Rectangle 4 Copy 3_4" x="525.031" y="234.834" width="111.549" height="1.78519" rx="0.615488" fill="#E1E8EE"/>
</g>
</g>
<g id="Group 33">
<ellipse id="Oval Copy 7" cx="504.283" cy="320.969" rx="10.0394" ry="10.0417" fill="url(#paint4_linear_0_328)"/>
<g id="Group 4 Copy 5">
<rect id="Rectangle 4_5" x="525.031" y="312.936" width="38.4843" height="3.57037" rx="0.615488" fill="#E1E8EE"/>
<rect id="Rectangle 4 Copy_5" x="525.031" y="320.077" width="133.858" height="1.78519" rx="0.615488" fill="#E1E8EE"/>
<rect id="Rectangle 4 Copy 2_5" x="525.031" y="323.647" width="122.703" height="1.78519" rx="0.615488" fill="#E1E8EE"/>
<rect id="Rectangle 4 Copy 3_5" x="525.031" y="327.218" width="111.549" height="1.78519" rx="0.615488" fill="#E1E8EE"/>
</g>
</g>
<g id="Group 13">
<g id="Group 4 Copy 3">
<rect id="Rectangle 4_6" x="525.031" y="251.347" width="38.4843" height="3.57037" rx="0.615488" fill="#E1E8EE"/>
<rect id="Rectangle 4 Copy_6" x="525.031" y="258.488" width="133.858" height="1.78519" rx="0.615488" fill="#E1E8EE"/>
<rect id="Rectangle 4 Copy 2_6" x="525.031" y="262.058" width="122.703" height="1.78519" rx="0.615488" fill="#E1E8EE"/>
<rect id="Rectangle 4 Copy 3_6" x="525.031" y="265.629" width="111.549" height="1.78519" rx="0.615488" fill="#E1E8EE"/>
</g>
<ellipse id="Oval Copy 4_2" cx="504.283" cy="259.381" rx="10.0394" ry="10.0417" fill="url(#paint5_linear_0_328)"/>
</g>
<g id="Group 34">
<g id="Group 4 Copy 6">
<rect id="Rectangle 4_7" x="525.031" y="343.731" width="38.4843" height="3.57037" rx="0.615488" fill="#E1E8EE"/>
<rect id="Rectangle 4 Copy_7" x="525.031" y="350.871" width="133.858" height="1.78519" rx="0.615488" fill="#E1E8EE"/>
<rect id="Rectangle 4 Copy 2_7" x="525.031" y="354.442" width="122.703" height="1.78519" rx="0.615488" fill="#E1E8EE"/>
<rect id="Rectangle 4 Copy 3_7" x="525.031" y="358.012" width="111.549" height="1.78519" rx="0.615488" fill="#E1E8EE"/>
</g>
<ellipse id="Oval Copy 9" cx="504.283" cy="351.764" rx="10.0394" ry="10.0417" fill="url(#paint6_linear_0_328)"/>
</g>
<g id="Group 14">
<g id="Group 4 Copy 4">
<rect id="Rectangle 4_8" x="525.031" y="282.142" width="38.4843" height="3.57037" rx="0.615488" fill="#E1E8EE"/>
<rect id="Rectangle 4 Copy_8" x="525.031" y="289.282" width="133.858" height="1.78519" rx="0.615488" fill="#E1E8EE"/>
<rect id="Rectangle 4 Copy 2_8" x="525.031" y="292.853" width="122.703" height="1.78519" rx="0.615488" fill="#E1E8EE"/>
<rect id="Rectangle 4 Copy 3_8" x="525.031" y="296.423" width="111.549" height="1.78519" rx="0.615488" fill="#E1E8EE"/>
</g>
<ellipse id="Oval Copy 2_2" cx="504.283" cy="290.175" rx="10.0394" ry="10.0417" fill="url(#paint7_linear_0_328)"/>
</g>
<g id="Group 37">
<g id="Group 4 Copy 7">
<rect id="Rectangle 4_9" x="525.031" y="374.525" width="38.4843" height="3.57037" rx="0.615488" fill="#E1E8EE"/>
<rect id="Rectangle 4 Copy_9" x="525.031" y="381.666" width="133.858" height="1.78519" rx="0.615488" fill="#E1E8EE"/>
<rect id="Rectangle 4 Copy 2_9" x="525.031" y="385.236" width="122.703" height="1.78519" rx="0.615488" fill="#E1E8EE"/>
<rect id="Rectangle 4 Copy 3_9" x="525.031" y="388.806" width="111.549" height="1.78519" rx="0.615488" fill="#E1E8EE"/>
</g>
<ellipse id="Oval Copy 10" cx="504.283" cy="382.558" rx="10.0394" ry="10.0417" fill="url(#paint8_linear_0_328)"/>
</g>
<g id="Group 38">
<ellipse id="Oval Copy 13" cx="504.283" cy="413.353" rx="10.0394" ry="10.0417" fill="url(#paint9_linear_0_328)"/>
<g id="Group 4 Copy 10">
<rect id="Rectangle 4_10" x="525.031" y="405.319" width="38.4843" height="3.57037" rx="0.615488" fill="#E1E8EE"/>
<rect id="Rectangle 4 Copy_10" x="525.031" y="412.46" width="133.858" height="1.78519" rx="0.615488" fill="#E1E8EE"/>
<rect id="Rectangle 4 Copy 2_10" x="525.031" y="416.031" width="122.703" height="1.78519" rx="0.615488" fill="#E1E8EE"/>
<rect id="Rectangle 4 Copy 3_10" x="525.031" y="419.601" width="111.549" height="1.78519" rx="0.615488" fill="#E1E8EE"/>
</g>
</g>
<g id="Group 39">
<g id="Group 4 Copy 9">
<rect id="Rectangle 4_11" x="525.031" y="436.114" width="38.4843" height="3.57037" rx="0.615488" fill="#E1E8EE"/>
<rect id="Rectangle 4 Copy_11" x="525.031" y="443.255" width="133.858" height="1.78519" rx="0.615488" fill="#E1E8EE"/>
<rect id="Rectangle 4 Copy 2_11" x="525.031" y="446.825" width="122.703" height="1.78519" rx="0.615488" fill="#E1E8EE"/>
<rect id="Rectangle 4 Copy 3_11" x="525.031" y="450.395" width="111.549" height="1.78519" rx="0.615488" fill="#E1E8EE"/>
</g>
<ellipse id="Oval Copy 12" cx="504.283" cy="444.147" rx="10.0394" ry="10.0417" fill="url(#paint10_linear_0_328)"/>
</g>
</g>
</g>
<defs>
<filter id="filter0_d_0_328" x="0" y="0" width="656.52" height="415.667" filterUnits="userSpaceOnUse" color-interpolation-filters="sRGB">
<feFlood flood-opacity="0" result="BackgroundImageFix"/>
<feColorMatrix in="SourceAlpha" type="matrix" values="0 0 0 0 0 0 0 0 0 0 0 0 0 0 0 0 0 0 127 0" result="hardAlpha"/>
<feOffset/>
<feGaussianBlur stdDeviation="3.5"/>
<feColorMatrix type="matrix" values="0 0 0 0 0 0 0 0 0 0.145098 0 0 0 0 0.180392 0 0 0 0.181839 0"/>
<feBlend mode="normal" in2="BackgroundImageFix" result="effect1_dropShadow_0_328"/>
<feBlend mode="normal" in="SourceGraphic" in2="effect1_dropShadow_0_328" result="shape"/>
</filter>
<filter id="filter1_d_0_328" x="0" y="0" width="656.52" height="56.8444" filterUnits="userSpaceOnUse" color-interpolation-filters="sRGB">
<feFlood flood-opacity="0" result="BackgroundImageFix"/>
<feColorMatrix in="SourceAlpha" type="matrix" values="0 0 0 0 0 0 0 0 0 0 0 0 0 0 0 0 0 0 127 0" result="hardAlpha"/>
<feOffset/>
<feGaussianBlur stdDeviation="3.5"/>
<feColorMatrix type="matrix" values="0 0 0 0 0 0 0 0 0 0.145098 0 0 0 0 0.180392 0 0 0 0.181839 0"/>
<feBlend mode="normal" in2="BackgroundImageFix" result="effect1_dropShadow_0_328"/>
<feBlend mode="normal" in="SourceGraphic" in2="effect1_dropShadow_0_328" result="shape"/>
</filter>
<filter id="filter2_d_0_328" x="466.827" y="140.244" width="226.173" height="354.756" filterUnits="userSpaceOnUse" color-interpolation-filters="sRGB">
<feFlood flood-opacity="0" result="BackgroundImageFix"/>
<feColorMatrix in="SourceAlpha" type="matrix" values="0 0 0 0 0 0 0 0 0 0 0 0 0 0 0 0 0 0 127 0" result="hardAlpha"/>
<feOffset/>
<feGaussianBlur stdDeviation="3"/>
<feColorMatrix type="matrix" values="0 0 0 0 0 0 0 0 0 0.145098 0 0 0 0 0.180392 0 0 0 0.181839 0"/>
<feBlend mode="normal" in2="BackgroundImageFix" result="effect1_dropShadow_0_328"/>
<feBlend mode="normal" in="SourceGraphic" in2="effect1_dropShadow_0_328" result="shape"/>
</filter>
<filter id="filter3_d_0_328" x="466.827" y="140.244" width="226.173" height="48.5606" filterUnits="userSpaceOnUse" color-interpolation-filters="sRGB">
<feFlood flood-opacity="0" result="BackgroundImageFix"/>
<feColorMatrix in="SourceAlpha" type="matrix" values="0 0 0 0 0 0 0 0 0 0 0 0 0 0 0 0 0 0 127 0" result="hardAlpha"/>
<feOffset/>
<feGaussianBlur stdDeviation="3"/>
<feColorMatrix type="matrix" values="0 0 0 0 0 0 0 0 0 0.145098 0 0 0 0 0.180392 0 0 0 0.181839 0"/>
<feBlend mode="normal" in2="BackgroundImageFix" result="effect1_dropShadow_0_328"/>
<feBlend mode="normal" in="SourceGraphic" in2="effect1_dropShadow_0_328" result="shape"/>
</filter>
<linearGradient id="paint0_linear_0_328" x1="19.1613" y1="104.673" x2="58.4886" y2="195.775" gradientUnits="userSpaceOnUse">
<stop stop-color="#FAD961"/>
<stop offset="1" stop-color="#FF52C1"/>
</linearGradient>
<linearGradient id="paint1_linear_0_328" x1="55.189" y1="190.428" x2="55.189" y2="250.678" gradientUnits="userSpaceOnUse">
<stop stop-color="#00C7FA"/>
<stop offset="1" stop-color="#007DFA"/>
</linearGradient>
<linearGradient id="paint2_linear_0_328" x1="39.1366" y1="304.603" x2="76.0305" y2="371.62" gradientUnits="userSpaceOnUse">
<stop stop-color="#FF52C1"/>
<stop offset="1" stop-color="#9952FF"/>
</linearGradient>
<linearGradient id="paint3_linear_0_328" x1="482.985" y1="220.197" x2="495.275" y2="248.667" gradientUnits="userSpaceOnUse">
<stop stop-color="#FAD961"/>
<stop offset="1" stop-color="#FF52C1"/>
</linearGradient>
<linearGradient id="paint4_linear_0_328" x1="482.985" y1="312.581" x2="495.275" y2="341.05" gradientUnits="userSpaceOnUse">
<stop stop-color="#FAD961"/>
<stop offset="1" stop-color="#FF52C1"/>
</linearGradient>
<linearGradient id="paint5_linear_0_328" x1="494.244" y1="249.339" x2="494.244" y2="269.422" gradientUnits="userSpaceOnUse">
<stop stop-color="#00C7FA"/>
<stop offset="1" stop-color="#007DFA"/>
</linearGradient>
<linearGradient id="paint6_linear_0_328" x1="494.244" y1="341.722" x2="494.244" y2="361.806" gradientUnits="userSpaceOnUse">
<stop stop-color="#00C7FA"/>
<stop offset="1" stop-color="#007DFA"/>
</linearGradient>
<linearGradient id="paint7_linear_0_328" x1="488.893" y1="286.282" x2="501.191" y2="308.621" gradientUnits="userSpaceOnUse">
<stop stop-color="#FF52C1"/>
<stop offset="1" stop-color="#9952FF"/>
</linearGradient>
<linearGradient id="paint8_linear_0_328" x1="488.893" y1="378.665" x2="501.191" y2="401.004" gradientUnits="userSpaceOnUse">
<stop stop-color="#FF52C1"/>
<stop offset="1" stop-color="#9952FF"/>
</linearGradient>
<linearGradient id="paint9_linear_0_328" x1="482.985" y1="404.964" x2="495.275" y2="433.434" gradientUnits="userSpaceOnUse">
<stop stop-color="#FAD961"/>
<stop offset="1" stop-color="#FF52C1"/>
</linearGradient>
<linearGradient id="paint10_linear_0_328" x1="494.244" y1="434.106" x2="494.244" y2="454.189" gradientUnits="userSpaceOnUse">
<stop stop-color="#00C7FA"/>
<stop offset="1" stop-color="#007DFA"/>
</linearGradient>
</defs>
</svg>
